# xmcd CD database file
#
# Track frame offsets:
#	150
#	19387
#	40150
#	61565
#	84860
#	99837
#	113507
#	134200
#	163442
#	173565
#	196300
#	210757
#
# Disc length: 3088 seconds
#
# Revision: 0
# Processed by: cddbd v1.5.1PL0 Copyright (c) Steve Scherf et al.
# Submitted via: CDex 1.51
#
DISCID=910c0e0c
DTITLE=Paul Smith Trio and Ernie Watts - A letter from LA
DYEAR=1990
DGENRE=Jazz
TTITLE0=Green Dolphin Street
TTITLE1=Let#s get away from it all
TTITLE2=How high the moon
TTITLE3=Georgia on my mind
TTITLE4=All of me
TTITLE5=San Francisco
TTITLE6=One note samba
TTITLE7=Body and soul
TTITLE8=Pennies from heaven
TTITLE9=Fools rush in
TTITLE10=Always
TTITLE11=Have you met Ms. Jones
EXTD=YEAR: 1990
EXTT0=
EXTT1=
EXTT2=
EXTT3=
EXTT4=
EXTT5=
EXTT6=
EXTT7=
EXTT8=
EXTT9=
EXTT10=
EXTT11=
PLAYORDER=
